<svg width="24" height="24" viewBox="0 0 24 24" fill="none" xmlns="http://www.w3.org/2000/svg">
<path d="M15 12C15 13.6569 13.6569 15 12 15C10.3431 15 9 13.6569 9 12C9 10.3431 10.3431 9 12 9C13.6569 9 15 10.3431 15 12Z" stroke="#FF0101" stroke-width="2"/>
<path d="M6.94969 7.05025C9.68336 4.31658 14.1155 4.31658 16.8491 7.05025L18.9705 9.17157C20.3038 10.5049 20.9705 11.1716 20.9705 12C20.9705 12.8284 20.3038 13.4951 18.9705 14.8284L16.8491 16.9497C14.1155 19.6834 9.68336 19.6834 6.94969 16.9497L4.82837 14.8284C3.49503 13.4951 2.82837 12.8284 2.82837 12C2.82837 11.1716 3.49503 10.5049 4.82837 9.17157L6.94969 7.05025Z" stroke="#FF0101" stroke-width="2" stroke-linejoin="round"/>
</svg>
