<svg width="29" height="30" viewBox="0 0 29 30" fill="none" xmlns="http://www.w3.org/2000/svg">
<path fill-rule="evenodd" clip-rule="evenodd" d="M2.41663 15C2.41663 8.09644 7.82652 2.5 14.5 2.5C21.1733 2.5 26.5833 8.09644 26.5833 15C26.5833 21.9035 21.1733 27.5 14.5 27.5C7.82652 27.5 2.41663 21.9035 2.41663 15ZM18.9794 11.6161C19.4512 12.1043 19.4512 12.8958 18.9794 13.3839L14.5293 17.9874C13.8458 18.6945 12.7375 18.6945 12.0539 17.9874L10.0205 15.8839C9.54866 15.3958 9.54866 14.6042 10.0205 14.1161C10.4924 13.628 11.2575 13.628 11.7294 14.1161L13.2916 15.7323L17.2705 11.6161C17.7424 11.128 18.5075 11.128 18.9794 11.6161Z" fill="black"/>
</svg>
