<svg width="24" height="24" viewBox="0 0 24 24" fill="none" xmlns="http://www.w3.org/2000/svg">
<g clip-path="url(#clip0_3_494)">
<path d="M3.17163 7.12988L21.1716 21.1299" stroke="black" stroke-width="2" stroke-linecap="round" stroke-linejoin="round"/>
<path d="M14.3653 15.8456C13.8162 16.5483 12.9609 17 12 17C10.3431 17 9 15.6569 9 14C9 13.3256 9.22253 12.7032 9.59817 12.2021" stroke="black" stroke-width="2"/>
<path d="M9 7.62667C11.5803 6.45322 14.7268 6.92775 16.8493 9.05025L19.8511 12.052C20.3477 12.5486 20.5959 12.7969 20.7362 13.0605C21.0487 13.6479 21.0487 14.3521 20.7362 14.9395C20.5959 15.2031 20.3477 15.4514 19.8511 15.948L19.799 16" stroke="black" stroke-width="2" stroke-linecap="round" stroke-linejoin="round"/>
<path d="M7.01596 10.3983C7.40649 10.0077 7.40649 9.37458 7.01596 8.98406C6.62544 8.59353 5.99228 8.59353 5.60175 8.98406L7.01596 10.3983ZM7.65685 18.2427L5.53553 16.1213L4.12132 17.5356L6.24264 19.6569L7.65685 18.2427ZM16.1421 18.2427C13.799 20.5858 10 20.5858 7.65685 18.2427L6.24264 19.6569C9.36684 22.7811 14.4322 22.7811 17.5563 19.6569L16.1421 18.2427ZM5.53553 11.8787L7.01596 10.3983L5.60175 8.98406L4.12132 10.4645L5.53553 11.8787ZM16.7465 17.6383L16.1421 18.2427L17.5563 19.6569L18.1607 19.0526L16.7465 17.6383ZM5.53553 16.1213C4.84888 15.4347 4.40652 14.9893 4.12345 14.6183C3.85798 14.2704 3.82843 14.1077 3.82843 14H1.82843C1.82843 14.7208 2.1322 15.3056 2.53341 15.8315C2.917 16.3342 3.47464 16.8889 4.12132 17.5356L5.53553 16.1213ZM4.12132 10.4645C3.47464 11.1112 2.917 11.6658 2.53341 12.1686C2.1322 12.6944 1.82843 13.2792 1.82843 14H3.82843C3.82843 13.8924 3.85798 13.7297 4.12345 13.3817C4.40652 13.0107 4.84888 12.5654 5.53553 11.8787L4.12132 10.4645Z" fill="black"/>
</g>
<defs>
<clipPath id="clip0_3_494">
<rect width="24" height="24" fill="white"/>
</clipPath>
</defs>
</svg>
