<svg width="20" height="24" viewBox="0 0 20 24" fill="none" xmlns="http://www.w3.org/2000/svg">
<g clip-path="url(#clip0_3_398)">
<path d="M16.3114 12.7507C16.2842 9.71587 18.79 8.2589 18.9034 8.18787C17.4933 6.12486 15.2988 5.84223 14.5159 5.80898C12.6494 5.62006 10.872 6.90774 9.92589 6.90774C8.97977 6.90774 7.51677 5.83619 5.96913 5.86642C3.93181 5.89665 2.05621 7.04981 1.00732 8.87252C-1.10708 12.5406 0.467764 17.977 2.52624 20.9544C3.53432 22.4098 4.73434 24.0497 6.31221 23.9892C7.83264 23.9288 8.40696 23.0068 10.2418 23.0068C12.0766 23.0068 12.5934 23.9892 14.2 23.9605C15.8338 23.9288 16.8706 22.4733 17.8711 21.0133C19.0258 19.3236 19.5034 17.6883 19.5306 17.6022C19.4943 17.5871 16.3447 16.3795 16.3114 12.7507Z" fill="#2C2929"/>
<path d="M13.2936 3.83938C14.1309 2.82525 14.6962 1.41513 14.5405 0.00961304C13.3343 0.0580291 11.8744 0.813676 11.0084 1.8278C10.2331 2.72408 9.55296 4.15984 9.73726 5.53674C11.0824 5.64103 12.4562 4.85202 13.2936 3.83938Z" fill="#2C2929"/>
</g>
<defs>
<clipPath id="clip0_3_398">
<rect width="19.5362" height="24" fill="white"/>
</clipPath>
</defs>
</svg>
