<svg width="21" height="21" viewBox="0 0 21 21" fill="none" xmlns="http://www.w3.org/2000/svg">
<g clip-path="url(#clip0_3_405)">
<path d="M20.5835 10.7411C20.5835 10.0274 20.5257 9.30975 20.4022 8.60756H10.4983V12.6509H16.1698C15.9344 13.955 15.1782 15.1086 14.071 15.8416V18.4652H17.4546C19.4415 16.6364 20.5835 13.9357 20.5835 10.7411Z" fill="#4285F4"/>
<path d="M10.4984 21C13.3303 21 15.7185 20.0702 17.4585 18.4652L14.0749 15.8416C13.1335 16.4821 11.9182 16.8448 10.5023 16.8448C7.76298 16.8448 5.44036 14.9967 4.607 12.512H1.11536V15.2166C2.89783 18.7623 6.52836 21 10.4984 21Z" fill="#34A853"/>
<path d="M4.60301 12.512C4.16318 11.208 4.16318 9.79589 4.60301 8.49183V5.78725H1.11523C-0.374022 8.75418 -0.374022 12.2497 1.11523 15.2166L4.60301 12.512Z" fill="#FBBC04"/>
<path d="M10.4984 4.15525C11.9954 4.1321 13.4422 4.69539 14.5263 5.72938L17.5241 2.73158C15.6259 0.949111 13.1065 -0.0308635 10.4984 1.86369e-06C6.52836 1.86369e-06 2.89783 2.23774 1.11536 5.78725L4.60314 8.49183C5.43264 6.00331 7.75912 4.15525 10.4984 4.15525Z" fill="#EA4335"/>
</g>
<defs>
<clipPath id="clip0_3_405">
<rect width="20.5833" height="21" fill="white"/>
</clipPath>
</defs>
</svg>
